# xmcd CD database file
#
# Track frame offsets:
#	150
#	15619
#	29530
#	47633
#	67645
#	83518
#	98494
#	113653
#	134281
#	145962
#	163706
#	178560
#	191297
#	210073
#	230870
#	251680
#
# Disc length: 3585 seconds
#
# Revision: 0
# Processed by: cddbd v1.5.2PL0 Copyright (c) Steve Scherf et al.
# Submitted via: CDex 2.10
#
DISCID=c40dff10
DTITLE=Various Artist - Hott Country 25
DYEAR=1999
DGENRE=Country
TTITLE0=Alan Jackson - A House With No Curtains
TTITLE1=Trace Adkins - Lonely Won`t Leave Me Alone
TTITLE2=Mindy McCreedy - You`ll Never Know
TTITLE3=Sons Of The Desert - Leaving October Behind
TTITLE4=JHN Anderson - Takin`The Country Back
TTITLE5=Michael Petetson - Too Good To Be True
TTITLE6=Lonestar - Say When
TTITLE7=Patty Loveless - To Have You Back Again
TTITLE8=Sherrie Austin - Put Your Heart Into It
TTITLE9=Toby Keith - Dream Walkin`
TTITLE10=Alabama - She`s Got That Look In Her Eyes
TTITLE11=Duane Steele - If I Could Just Get To You
TTITLE12=Charlie Major - Some Days Are Better
TTITLE13=Lee Ray Parnell - All That Matters Anymore
TTITLE14=Ricohet - Connection At The Heart
TTITLE15=Scooter Lee - In The Name Of Love
EXTD=YEAR: 1999
EXTT0=
EXTT1=
EXTT2=
EXTT3=
EXTT4=
EXTT5=
EXTT6=
EXTT7=
EXTT8=
EXTT9=
EXTT10=
EXTT11=
EXTT12=
EXTT13=
EXTT14=
EXTT15=
PLAYORDER=
